<svg width="40" height="40" xmlns="http://www.w3.org/2000/svg"><g fill="none" fill-rule="evenodd"><g transform="translate(6 7)"><circle fill="#FFF" cx="25" cy="9" r="3"/><circle fill="#FFF" cx="3" cy="9" r="3"/><path d="M26.247 27.637L22 18.55A10.962 10.962 0 0 0 25 11c0-6.075-4.925-11-11-11S3 4.925 3 11c0 2.902 1.123 5.54 2.959 7.506L3 27.636" fill="#FFF"/><path d="M5.622 18.461c3.823 1.268 6.697 1.903 8.623 1.903 1.926 0 4.717-.788 8.371-2.364l.35 3.141-8.344 6.175L5 21.14l.622-2.68z" fill="#417FF9"/></g><path d="M31 13a3 3 0 1 1-.348 5.98c-.018-.347-.045-.69-.078-1.027a2 2 0 1 0-.659-3.633 12.17 12.17 0 0 0-.309-.978c.416-.218.89-.342 1.394-.342zM9 13c.396 0 .775.077 1.121.217l-.037.095c-.077.206-.156.443-.234.707l-.043.15A2 2 0 1 0 9 18l.1-.003c-.031.33-.057.665-.074 1.003H9a3 3 0 0 1 0-6z" fill="#2B2626" fill-rule="nonzero"/><g fill="#2B2626" fill-rule="nonzero"><path d="M20 6.5c6.351 0 11.5 5.149 11.5 11.5 0 2.737-.961 5.325-2.674 7.373l-.233.269 4.107 8.783-.905.424-4.393-9.394.233-.247A10.46 10.46 0 0 0 30.5 18c0-5.799-4.701-10.5-10.5-10.5S9.5 12.201 9.5 18c0 2.58.934 5.012 2.594 6.91l.23.255.201.215-3.05 9.41-.95-.307 2.869-8.856-.033-.037a11.453 11.453 0 0 1-2.856-7.236L8.5 18c0-6.351 5.149-11.5 11.5-11.5z"/><path d="M29.496 28.372l-.458-4.098-.62.267c-3.597 1.551-6.33 2.323-8.173 2.323-1.86 0-4.69-.625-8.466-1.877l-.52-.173-.826 3.558 10.209 6.551 8.854-6.551zm-1.303-2.651l.244 2.19-7.837 5.797-9.033-5.798.418-1.804.39.125c3.42 1.087 6.038 1.633 7.87 1.633 1.769 0 4.186-.623 7.27-1.863l.678-.28z"/></g><circle fill="#000" cx="16" cy="15" r="1"/><circle fill="#000" cx="25" cy="15" r="1"/><ellipse fill="#000" cx="20" cy="17" rx="2" ry="1"/><path d="M14.023 31.247c1.47-3.383 2.463-5.68 2.977-6.888.77-1.812 3.5-.77 3 2.64-.333 2.273-1.498 5.106-3.494 8.501" fill="#FFF"/><path d="M28.06 29.777c-2.667-1.712-4.334-3.055-5-4.03-1-1.46-3.775-.776-2.888 2.015.592 1.861 3.02 4.416 7.287 7.665" fill="#FFF"/><path d="M16.54 24.164c1.18-2.774 4.477-.655 3.955 2.907-.33 2.245-1.43 4.987-3.298 8.236l-.26.446-.862-.506c1.966-3.344 3.108-6.122 3.43-8.32.383-2.607-1.445-3.782-2.045-2.372l-2.804 6.49-.174.402-.917-.399 2.911-6.734.064-.15z" fill="#2B2626" fill-rule="nonzero"/><path d="M20.693 24.71a2.23 2.23 0 0 1 2.779.755c.566.827 1.98 1.998 4.225 3.48l.633.411-.54.842c-2.721-1.747-4.427-3.121-5.143-4.168a1.23 1.23 0 0 0-1.524-.418c-.568.27-.806.955-.474 1.999.517 1.626 2.644 3.93 6.371 6.846l.742.572-.606.796c-4.345-3.31-6.827-5.92-7.46-7.911-.474-1.493-.053-2.704.997-3.205z" fill="#2B2626" fill-rule="nonzero"/><path d="M15.379 19.372c.29.854.673 1.228 1.156 1.228.322 0 .624-.092 1.347-.39l.514-.213.09-.036c.61-.241 1.063-.361 1.51-.361.403 0 .804.095 1.323.291l.307.122.642.267c.596.241.883.32 1.19.32.467 0 .83-.32 1.1-1.048l.062-.175.76.247c-.372 1.148-1.018 1.776-1.922 1.776-.474 0-.839-.108-1.647-.443l-.561-.234c-.548-.221-.922-.323-1.253-.323-.283 0-.602.075-1.028.232l-.274.107-.314.13c-.975.409-1.346.531-1.846.531-.832 0-1.448-.554-1.842-1.574l-.072-.196.758-.258z" fill="#000" fill-rule="nonzero"/></g></svg>